<svg xmlns="http://www.w3.org/2000/svg" version="1.1" xmlns:xlink="http://www.w3.org/1999/xlink" xmlns:svgjs="http://svgjs.dev/svgjs" width="1440" height="560" preserveAspectRatio="none" viewBox="0 0 1440 560"><g mask="url(&quot;#SvgjsMask1013&quot;)" fill="none"><rect width="1440" height="560" x="0" y="0" fill="rgba(28, 142, 129, 1)"></rect><path d="M135.99 594.16C344.08 568.4 465.91 99.07 811.75 97.36 1157.59 95.65 1311.23 296.83 1487.51 298.96" stroke="rgba(0, 233, 206, 0.5)" stroke-width="2"></path><path d="M602.02 587.02C700.6 565.4 635.16 329.41 892.28 306.49 1149.41 283.57 1312.43 38.89 1472.81 32.09" stroke="rgba(0, 233, 206, 0.5)" stroke-width="2"></path><path d="M504.77 590.78C604.4 588.73 585.36 459.36 879.69 455.41 1174.02 451.46 1434.69 244.66 1629.54 242.61" stroke="rgba(0, 233, 206, 0.5)" stroke-width="2"></path><path d="M402.96 581.88C583.83 569.79 714.77 225.39 1034.05 224.82 1353.32 224.25 1502.22 385.93 1665.13 387.22" stroke="rgba(0, 233, 206, 0.5)" stroke-width="2"></path><path d="M264.26 579.97C404.42 543.09 444.22 165.32 661.26 157.52 878.3 149.72 859.76 227.52 1058.26 227.52 1256.76 227.52 1354.48 157.79 1455.26 157.52" stroke="rgba(0, 233, 206, 0.5)" stroke-width="2"></path></g><defs><mask id="SvgjsMask1013"><rect width="1440" height="560" fill="#ffffff"></rect></mask></defs></svg>