<svg xmlns="http://www.w3.org/2000/svg" viewBox="0 0 100 100" preserveAspectRatio="xMidYMid" width="204" height="204" style="shape-rendering: auto; display: block; background: rgb(255, 255, 255);" xmlns:xlink="http://www.w3.org/1999/xlink"><g><g transform="rotate(0 50 50)">
  <rect fill="#534b4d" height="19" width="4" ry="6.08" rx="2" y="15.5" x="48">
    <animate repeatCount="indefinite" begin="-0.5009107468123861s" dur="0.5464480874316939s" keyTimes="0;1" values="1;0" attributeName="opacity"></animate>
  </rect>
</g><g transform="rotate(30 50 50)">
  <rect fill="#534b4d" height="19" width="4" ry="6.08" rx="2" y="15.5" x="48">
    <animate repeatCount="indefinite" begin="-0.4553734061930783s" dur="0.5464480874316939s" keyTimes="0;1" values="1;0" attributeName="opacity"></animate>
  </rect>
</g><g transform="rotate(60 50 50)">
  <rect fill="#534b4d" height="19" width="4" ry="6.08" rx="2" y="15.5" x="48">
    <animate repeatCount="indefinite" begin="-0.4098360655737705s" dur="0.5464480874316939s" keyTimes="0;1" values="1;0" attributeName="opacity"></animate>
  </rect>
</g><g transform="rotate(90 50 50)">
  <rect fill="#534b4d" height="19" width="4" ry="6.08" rx="2" y="15.5" x="48">
    <animate repeatCount="indefinite" begin="-0.36429872495446264s" dur="0.5464480874316939s" keyTimes="0;1" values="1;0" attributeName="opacity"></animate>
  </rect>
</g><g transform="rotate(120 50 50)">
  <rect fill="#534b4d" height="19" width="4" ry="6.08" rx="2" y="15.5" x="48">
    <animate repeatCount="indefinite" begin="-0.31876138433515483s" dur="0.5464480874316939s" keyTimes="0;1" values="1;0" attributeName="opacity"></animate>
  </rect>
</g><g transform="rotate(150 50 50)">
  <rect fill="#534b4d" height="19" width="4" ry="6.08" rx="2" y="15.5" x="48">
    <animate repeatCount="indefinite" begin="-0.27322404371584696s" dur="0.5464480874316939s" keyTimes="0;1" values="1;0" attributeName="opacity"></animate>
  </rect>
</g><g transform="rotate(180 50 50)">
  <rect fill="#534b4d" height="19" width="4" ry="6.08" rx="2" y="15.5" x="48">
    <animate repeatCount="indefinite" begin="-0.22768670309653916s" dur="0.5464480874316939s" keyTimes="0;1" values="1;0" attributeName="opacity"></animate>
  </rect>
</g><g transform="rotate(210 50 50)">
  <rect fill="#534b4d" height="19" width="4" ry="6.08" rx="2" y="15.5" x="48">
    <animate repeatCount="indefinite" begin="-0.18214936247723132s" dur="0.5464480874316939s" keyTimes="0;1" values="1;0" attributeName="opacity"></animate>
  </rect>
</g><g transform="rotate(240 50 50)">
  <rect fill="#534b4d" height="19" width="4" ry="6.08" rx="2" y="15.5" x="48">
    <animate repeatCount="indefinite" begin="-0.13661202185792348s" dur="0.5464480874316939s" keyTimes="0;1" values="1;0" attributeName="opacity"></animate>
  </rect>
</g><g transform="rotate(270 50 50)">
  <rect fill="#534b4d" height="19" width="4" ry="6.08" rx="2" y="15.5" x="48">
    <animate repeatCount="indefinite" begin="-0.09107468123861566s" dur="0.5464480874316939s" keyTimes="0;1" values="1;0" attributeName="opacity"></animate>
  </rect>
</g><g transform="rotate(300 50 50)">
  <rect fill="#534b4d" height="19" width="4" ry="6.08" rx="2" y="15.5" x="48">
    <animate repeatCount="indefinite" begin="-0.04553734061930783s" dur="0.5464480874316939s" keyTimes="0;1" values="1;0" attributeName="opacity"></animate>
  </rect>
</g><g transform="rotate(330 50 50)">
  <rect fill="#534b4d" height="19" width="4" ry="6.08" rx="2" y="15.5" x="48">
    <animate repeatCount="indefinite" begin="0s" dur="0.5464480874316939s" keyTimes="0;1" values="1;0" attributeName="opacity"></animate>
  </rect>
</g><g></g></g><!-- [ldio] generated by https://loading.io --></svg>